{
  "accessors": [
    {
      "bufferView": 1,
      "componentType": 5126,
      "count": 424,
      "max": [
        25.0,
        -0.0,
        39.0
      ],
      "min": [
        -32.0,
        -47.5,
        -40.0
      ],
      "type": "VEC3"
    },
    {
      "bufferView": 1,
      "byteOffset": 5088,
      "componentType": 5126,
      "count": 424,
      "max": [
        1.0,
        1.0,
        1.0
      ],
      "min": [
        -1.0,
        -1.0,
        -1.0
      ],
      "type": "VEC3"
    },
    {
      "bufferView": 0,
      "componentType": 5125,
      "count": 780,
      "type": "SCALAR"
    },
    {
      "bufferView": 1,
      "byteOffset": 10176,
      "componentType": 5126,
      "count": 3497,
      "max": [
        -42.31999969482422,
        -10.944299697875977,
        37.0
      ],
      "min": [
        -52.0099983215332,
        -38.374000549316406,
        -33.0
      ],
      "type": "VEC3"
    },
    {
      "bufferView": 1,
      "byteOffset": 52140,
      "componentType": 5126,
      "count": 3497,
      "max": [
        1.0,
        0.9981034994125366,
        1.0
      ],
      "min": [
        -1.0,
        -1.0,
        -1.0
      ],
      "type": "VEC3"
    },
    {
      "bufferView": 0,
      "byteOffset": 3120,
      "componentType": 5125,
      "count": 10239,
      "type": "SCALAR"
    },
    {
      "bufferView": 1,
      "byteOffset": 94104,
      "componentType": 5126,
      "count": 1818,
      "max": [
        -39.0,
        -0.5,
        36.20000076293945
      ],
      "min": [
        -53.82400131225586,
        -30.625999450683594,
        -32.5
      ],
      "type": "VEC3"
    },
    {
      "bufferView": 1,
      "byteOffset": 115920,
      "componentType": 5126,
      "count": 1818,
      "max": [
        0.9972334504127502,
        1.0,
        0.9988271594047546
      ],
      "min": [
        -0.9965386986732483,
        -1.0,
        -0.9972676634788513
      ],
      "type": "VEC3"
    },
    {
      "bufferView": 0,
      "byteOffset": 44076,
      "componentType": 5125,
      "count": 5316,
      "type": "SCALAR"
    },
    {
      "bufferView": 1,
      "byteOffset": 137736,
      "componentType": 5126,
      "count": 497,
      "max": [
        40.0,
        -0.0,
        41.0
      ],
      "min": [
        -56.0,
        -69.0,
        -55.0
      ],
      "type": "VEC3"
    },
    {
      "bufferView": 1,
      "byteOffset": 143700,
      "componentType": 5126,
      "count": 497,
      "max": [
        1.0,
        1.0,
        1.0
      ],
      "min": [
        -1.0,
        -1.0,
        -1.0
      ],
      "type": "VEC3"
    },
    {
      "bufferView": 0,
      "byteOffset": 65340,
      "componentType": 5125,
      "count": 1515,
      "type": "SCALAR"
    },
    {
      "bufferView": 1,
      "byteOffset": 149664,
      "componentType": 5126,
      "count": 1091,
      "max": [
        -39.3931999206543,
        -1.024999976158142,
        35.775901794433594
      ],
      "min": [
        -53.56060028076172,
        -30.041000366210938,
        -32.23540115356445
      ],
      "type": "VEC3"
    },
    {
      "bufferView": 1,
      "byteOffset": 162756,
      "componentType": 5126,
      "count": 1091,
      "max": [
        0.9971021413803101,
        1.0,
        0.9984205961227417
      ],
      "min": [
        -0.9973047375679016,
        -0.9999207854270935,
        -0.9984205961227417
      ],
      "type": "VEC3"
    },
    {
      "bufferView": 0,
      "byteOffset": 71400,
      "componentType": 5125,
      "count": 3222,
      "type": "SCALAR"
    }
  ],
  "asset": {
    "extras": {
      "author": "c.capuano2020d (https://sketchfab.com/c.capuano2020d)",
      "license": "CC-BY-4.0 (http://creativecommons.org/licenses/by/4.0/)",
      "source": "https://sketchfab.com/3d-models/progetto-1-3b571cedfed544c8afa8d5a6a258cd69",
      "title": "Progetto 1"
    },
    "generator": "Sketchfab-14.97.0",
    "version": "2.0"
  },
  "bufferViews": [
    {
      "buffer": 0,
      "byteLength": 84288,
      "name": "floatBufferViews",
      "target": 34963
    },
    {
      "buffer": 0,
      "byteLength": 175848,
      "byteOffset": 84288,
      "byteStride": 12,
      "name": "floatBufferViews",
      "target": 34962
    }
  ],
  "buffers": [
    {
      "byteLength": 260136,
      "uri": "scene.bin"
    }
  ],
  "extensionsUsed": [
    "KHR_materials_transmission",
    "KHR_materials_specular"
  ],
  "materials": [
    {
      "doubleSided": true,
      "extensions": {
        "KHR_materials_specular": {
          "specularColorFactor": [
            1.0,
            1.0,
            1.0
          ],
          "specularFactor": 1.0
        },
        "KHR_materials_transmission": {
          "transmissionFactor": 0.0
        }
      },
      "name": "color_11107152",
      "pbrMetallicRoughness": {
        "baseColorFactor": [
          0.5757194013916181,
          0.25710812506550307,
          0.05787920338049219,
          1.0
        ],
        "metallicFactor": 0.18742914264119662,
        "roughnessFactor": 0.0
      }
    },
    {
      "doubleSided": true,
      "name": "color_1206582",
      "pbrMetallicRoughness": {
        "baseColorFactor": [
          0.008839968021607872,
          0.15090114725019055,
          0.05928695536685724,
          1.0
        ],
        "metallicFactor": 0.0
      }
    },
    {
      "doubleSided": true,
      "name": "color_13165757",
      "pbrMetallicRoughness": {
        "baseColorFactor": [
          0.784314,
          0.894118,
          0.741176,
          1.0
        ],
        "metallicFactor": 0.0
      }
    },
    {
      "doubleSided": true,
      "name": "color_14789940",
      "pbrMetallicRoughness": {
        "baseColorFactor": [
          0.882353,
          0.6784310000000003,
          0.2039219999999999,
          1.0
        ],
        "metallicFactor": 0.0
      }
    },
    {
      "doubleSided": true,
      "name": "color_6306067",
      "pbrMetallicRoughness": {
        "baseColorFactor": [
          0.376471,
          0.223529,
          0.0745098,
          1.0
        ],
        "metallicFactor": 0.0
      }
    }
  ],
  "meshes": [
    {
      "name": "Object_0",
      "primitives": [
        {
          "attributes": {
            "NORMAL": 1,
            "POSITION": 0
          },
          "indices": 2,
          "material": 0,
          "mode": 4
        }
      ]
    },
    {
      "name": "Object_1",
      "primitives": [
        {
          "attributes": {
            "NORMAL": 4,
            "POSITION": 3
          },
          "indices": 5,
          "material": 1,
          "mode": 4
        }
      ]
    },
    {
      "name": "Object_2",
      "primitives": [
        {
          "attributes": {
            "NORMAL": 7,
            "POSITION": 6
          },
          "indices": 8,
          "material": 2,
          "mode": 4
        }
      ]
    },
    {
      "name": "Object_3",
      "primitives": [
        {
          "attributes": {
            "NORMAL": 10,
            "POSITION": 9
          },
          "indices": 11,
          "material": 3,
          "mode": 4
        }
      ]
    },
    {
      "name": "Object_4",
      "primitives": [
        {
          "attributes": {
            "NORMAL": 13,
            "POSITION": 12
          },
          "indices": 14,
          "material": 4,
          "mode": 4
        }
      ]
    }
  ],
  "nodes": [
    {
      "children": [
        1
      ],
      "matrix": [
        1.0,
        0.0,
        0.0,
        0.0,
        0.0,
        -1.0,
        -6.661338147750939e-16,
        0.0,
        0.0,
        6.661338147750939e-16,
        -1.0,
        0.0,
        0.0,
        0.0,
        0.0,
        1.0
      ],
      "name": "Sketchfab_model"
    },
    {
      "children": [
        2,
        3,
        4,
        5,
        6
      ],
      "name": "tinker.obj.cleaner.materialmerger.gles"
    },
    {
      "mesh": 0,
      "name": "Object_2"
    },
    {
      "mesh": 1,
      "name": "Object_3"
    },
    {
      "mesh": 2,
      "name": "Object_4"
    },
    {
      "mesh": 3,
      "name": "Object_5"
    },
    {
      "mesh": 4,
      "name": "Object_6"
    }
  ],
  "scene": 0,
  "scenes": [
    {
      "name": "Sketchfab_Scene",
      "nodes": [
        0
      ]
    }
  ]
}
